# xmcd CD database file
#
# Track frame offsets:
#	150
#	17306
#	29521
#	46480
#	63126
#	78035
#	93901
#	107371
#	122995
#	140416
#	156460
#	173600
#	190044
#	202574
#	220526
#	235513
#
# Disc length: 3404 seconds
#
# Revision: 0
# Processed by: cddbd v1.5.1PL0 Copyright (c) Steve Scherf et al.
# Submitted via: Feurio! 1.68 - http://www.feurio.com
#
DISCID=b70d4a10
DTITLE=Louisiana on Tour - Country Impressions
DYEAR=2004
DGENRE=
TTITLE0=Designated drinker
TTITLE1=Walk in the room
TTITLE2=It`s 5o`clock somewhere
TTITLE3=Pain to kill
TTITLE4=Still in love with you
TTITLE5=I think of a reason later
TTITLE6=Good to go to mexico
TTITLE7=Black Coffee
TTITLE8=If you see him/her
TTITLE9=No shoes, no shirt
TTITLE10=She`s not just a pretty face
TTITLE11=If tomorrow never comes
TTITLE12=I wanna do it all
TTITLE13=I love this bar
TTITLE14=Bye bye
TTITLE15=BonusTrack - Dixie
EXTD=
EXTT0=
EXTT1=
EXTT2=
EXTT3=
EXTT4=
EXTT5=
EXTT6=
EXTT7=
EXTT8=
EXTT9=
EXTT10=
EXTT11=
EXTT12=
EXTT13=
EXTT14=
EXTT15=
PLAYORDER=
